<?xml version="1.0" ?><!DOCTYPE svg  PUBLIC '-//W3C//DTD SVG 1.1//EN'  'http://www.w3.org/Graphics/SVG/1.1/DTD/svg11.dtd'><svg enable-background="new 0 0 50 50" height="50px" version="1.1" viewBox="0 0 50 50" width="50px" xml:space="preserve" xmlns="http://www.w3.org/2000/svg" xmlns:xlink="http://www.w3.org/1999/xlink"><g id="Layer_23"/><g id="Layer_22"/><g id="Layer_21"/><g id="Layer_20"/><g id="Layer_19"><path clip-rule="evenodd" d="M19.159,26.214l1.16-4.531l-2.418-0.617l-1.16,4.531L19.159,26.214z    M13.52,32.464l-3.339-3.281L8.43,30.965l3.339,3.281L13.52,32.464z M21.154,32.316l0.261,4.674l2.495-0.137l-0.261-4.674   L21.154,32.316z M26.253,24.329l4.084,2.296l1.224-2.183l-4.083-2.296L26.253,24.329z M37.865,23.571l-1.161,4.53l2.418,0.617   l1.16-4.531L37.865,23.571z M5.04,22.881c-2.385,1.937-4.257,4.091-4.836,6.686c-1.683,7.534,7.434,13.716,13.574,14.845   c10.535,1.937,22.947-4.154,29.998-11.71c4.166-4.461,7.697-10.873,5.602-17.093c-1.753-5.205-7.672-9.445-12.898-10.216   c-6.976-1.03-11.832,2.849-17.147,6.665C13.786,16.038,7.294,21.051,5.04,22.881z M36.069,8.2   c4.212,0.622,9.224,4.155,10.624,8.308c1.735,5.155-1.584,10.614-4.992,14.264c-6.378,6.834-17.852,12.614-27.414,10.855   c-4.312-0.793-12.59-5.764-11.322-11.45c0.413-1.848,1.918-3.523,3.86-5.1c2.238-1.817,8.671-6.786,14.159-10.724   C25.55,11.078,30.067,7.312,36.069,8.2z M33.563,12.72l-2.457,0.441l0.828,4.604l2.457-0.441L33.563,12.72z" fill-rule="evenodd"/></g><g id="Layer_18"/><g id="Layer_17"/><g id="Layer_16"/><g id="Layer_15"/><g id="Layer_14"/><g id="Layer_13"/><g id="Layer_12"/><g id="Layer_11"/><g id="Layer_10"/><g id="Layer_9"/><g id="Layer_8"/><g id="Layer_7"/><g id="Layer_6"/><g id="Layer_5"/><g id="Layer_4"/><g id="Layer_3"/><g id="Layer_2"/></svg>